<?xml version="1.0" standalone="no"?>
<!DOCTYPE svg PUBLIC "-//W3C//DTD SVG 20010904//EN" "http://www.w3.org/TR/2001/REC-SVG-20010904/DTD/svg10.dtd">
<svg version="1.0" xmlns="http://www.w3.org/2000/svg" width="64.000000px" height="64.000000px" viewBox="0 0 128.000000 128.000000" preserveAspectRatio="xMidYMid meet">
<g transform="translate(0.000000,128.000000) scale(0.100000,-0.100000)" fill="#FFFFFF" stroke="none">
<path d="M485 1254 c-218 -53 -403 -238 -459 -460 -20 -79 -20 -229 0 -308 57
-224 242 -408 464 -460 36 -9 103 -16 150 -16 47 0 114 7 150 16 222 52 407
236 464 460 20 79 20 229 0 308 -57 224 -242 408 -464 460 -81 19 -225 19
-305 0z m312 -175 c140 -53 228 -141 283 -284 19 -48 23 -80 23 -155 0 -75 -4
-107 -23 -155 -55 -144 -141 -230 -285 -285 -85 -33 -225 -33 -310 0 -144 55
-230 141 -285 285 -33 85 -33 225 0 310 41 105 104 185 187 238 38 24 137 62
183 71 50 9 170 -4 227 -25z"/>
<path d="M605 773 c-62 -16 -111 -90 -102 -149 11 -65 76 -124 137 -124 35 0
88 30 111 61 59 84 10 198 -91 212 -19 3 -44 3 -55 0z"/>
</g>
</svg>
